<svg xmlns="http://www.w3.org/2000/svg" viewBox="0 0 64 64"><path d="M21 9H11a2 2 0 0 0-2 2v10M43 9h10a2 2 0 0 1 2 2v10M9 43v10a2 2 0 0 0 2 2h10" fill="none" stroke="#185A46" stroke-width="5" stroke-linecap="round"/><circle cx="24" cy="24" r="5" fill="#A0AF65"/><path d="m15 43 11-12 8 8 9-12 9 13-13 11H15Z" fill="#185A46"/><path d="m36 51 6 6 15-17" fill="none" stroke="#FFFFFF" stroke-width="9" stroke-linecap="round" stroke-linejoin="round"/><path d="m36 51 6 6 15-17" fill="none" stroke="#A0AF65" stroke-width="5" stroke-linecap="round" stroke-linejoin="round"/></svg>
